<svg id="Capa_1" enable-background="new 0 0 512 512" height="512" viewBox="0 0 512 512" width="512" xmlns="http://www.w3.org/2000/svg"><g><path d="m437.824 206.648 3.894-38.934h-371.436l3.893 38.934c-26.003 1.407-46.728 23.003-46.728 49.352 0 27.255 22.174 49.429 49.429 49.429h7.178l20.657 206.571h302.578l20.657-206.571h7.178c27.255 0 49.429-22.174 49.429-49.429 0-26.349-20.725-47.945-46.729-49.352zm-360.948 68.781c-10.713 0-19.429-8.716-19.429-19.429s8.716-19.429 19.429-19.429h.292l3.886 38.857h-4.178zm128.531 152.714h-30v-206.572h30zm65.593 0h-30v-206.572h30zm65.593 0h-30v-206.572h30zm98.531-152.714h-4.178l3.886-38.857h.292c10.713 0 19.429 8.716 19.429 19.429s-8.716 19.428-19.429 19.428z"/><path d="m477.571 137.714v-68.857h-144.243v-19.428c0-27.255-22.173-49.429-49.428-49.429h-62.329c-27.255 0-49.429 22.174-49.429 49.429v19.428h-137.713v68.857zm-275.428-88.285c0-10.713 8.716-19.429 19.429-19.429h62.328c10.713 0 19.428 8.716 19.428 19.429v19.428h-101.185z"/></g></svg>